<svg width="28" height="28" viewBox="0 0 28 28" fill="none" xmlns="http://www.w3.org/2000/svg" color="#000000" style="height: 24px; width: 24px;"><path d="M23.625 13.1249H6.16919L12.8533 6.75844C13.2033 6.42506 13.2169 5.87119 12.8835 5.52119C12.5506 5.17163 11.9967 5.15763 11.6463 5.491L4.01275 12.7623C3.68244 13.093 3.5 13.5323 3.5 13.9999C3.5 14.4672 3.68244 14.9069 4.02806 15.2521L11.6467 22.5084C11.816 22.6699 12.033 22.7499 12.25 22.7499C12.481 22.7499 12.712 22.6589 12.8839 22.4783C13.2173 22.1283 13.2037 21.5748 12.8537 21.2414L6.14162 14.8749H23.625C24.108 14.8749 24.5 14.4829 24.5 13.9999C24.5 13.5169 24.108 13.1249 23.625 13.1249Z" fill="currentColor"></path></svg>