<svg width="100%" height="auto" viewBox="0 0 466 429" fill="none" xmlns="http://www.w3.org/2000/svg"><g clip-path="url(#clip0_5833_36903)"><path d="M89.9749 111.531C89.5985 94.7759 89.7129 77.606 87.0926 61.0566C79.513 79.0094 68.5461 95.2533 60.7472 113.106C70.4993 112.447 80.3086 113.464 89.9749 111.531ZM151.894 136.978C153.456 137.441 152.818 139.398 151.089 138.758C144.805 138.968 138.592 140.209 132.323 140.3C132.999 151.102 133.604 161.914 132.756 172.721C132.947 173.518 132.404 174.277 131.565 174.272C129.846 174.143 126.982 175.041 125.958 173.322C114.986 175.733 103.533 175.179 92.4618 176.005C90.861 173.704 91.6709 168.324 91.185 165.346C90.4799 157.212 91.0421 149.131 91.0945 141.011C64.5633 141.627 38.3418 146.524 11.8106 146.715C9.69531 146.858 8.64721 146.114 9.98592 144.014C23.3539 120.127 37.651 96.7712 50.1853 72.4125C50.1853 72.4125 50.1853 72.4221 50.1757 72.4221C55.178 61.9827 62.0193 52.7079 68.4794 43.1755C70.8662 40.7124 83.7244 15.6616 85.7396 19.1462C92.9763 18.6975 100.199 18.7118 107.45 18.9552C111.037 19.3658 125.758 17.1891 125.415 22.3587C125.048 28.4829 126.401 34.4592 127.311 40.4737C129.617 63.0996 130.308 85.8926 132.004 108.581C137.773 108.323 143.457 107.297 149.116 106.91C151.36 108.838 151.351 119.063 151.546 122.233C151.96 127.135 151.927 132.075 151.841 136.978C151.856 136.978 151.875 136.978 151.889 136.978H151.894Z" fill="#264CAA"></path><path d="M238.538 89.7114C239.786 75.7444 238.581 57.2713 228.729 46.5264C213.393 42.8079 210.921 56.7224 207.319 68.0497C204.875 81.673 205.08 95.5254 206.49 109.244C208.972 119.431 210.982 135.856 224.346 136.004C239.367 131.522 237.471 102.514 238.538 89.7114ZM268.609 99.4682C271.043 130.915 266.198 177.141 223.917 171.136C209.734 168.492 197.876 166.802 190.283 152.93C173.394 123.846 167.505 43.7483 199.582 23.3563C213.879 14.6067 235.093 9.10775 248.419 21.7C266.87 42.8795 267.504 72.7419 268.609 99.4634V99.4682Z" fill="#264CAA"></path><path d="M420.817 156.806C420.507 156.682 420.322 156.472 420.221 156.219C407.263 154.758 394.124 155.804 381.118 156.009C377.893 156.324 378.65 154.534 378.745 152.195C378.879 146.138 378.483 140.104 378.555 134.047C350.98 134.042 323.287 133.359 295.907 136.906C295.412 136.639 295.26 135.904 295.612 135.469C301.448 121.159 307.813 107.067 314.468 93.1148C327.66 63.4529 345.621 36.1825 358.007 6.18643C358.031 5.51816 358.527 5.02173 359.179 4.94058C377.716 1.91902 396.463 0.959563 415.224 0.329474C415.224 0.26742 415.219 0.205366 415.219 0.148085C415.414 0.152858 415.629 0.100351 415.805 0.00488281C416.081 0.0573902 416.358 0.114671 416.634 0.167178C417.587 17.7572 418.702 35.4808 417.177 53.0708C417.144 67.1046 417.949 81.0477 418.702 95.0528C427.187 95.492 436.1 95.5111 444.352 96.8046C446.229 97.9694 444.876 107.664 445.519 110.447C446.124 117.636 446.438 124.877 446.386 132.085C445.967 132.242 445.547 132.395 445.123 132.543C445.09 132.495 445.061 132.443 445.033 132.381C444.656 132.419 444.252 132.19 444.066 131.622C436.253 131.741 428.435 132.113 420.65 132.801C421.103 138.285 420.974 143.804 421.527 149.279C421.241 151.054 423.375 156.749 420.812 156.816L420.817 156.806ZM359.003 96.9049C365.835 97.1627 372.662 96.8858 379.484 96.5135C379.889 78.5368 379.827 60.5889 381.027 42.6409C371.58 61.0853 361.237 79.0476 350.794 96.9335C353.529 96.9574 356.268 96.8333 359.003 96.9049Z" fill="#264CAA"></path></g><g clip-path="url(#clip1_5833_36903)"><path d="M33.4798 380.854C33.4798 380.854 33.4641 380.856 33.4563 380.859C33.3937 380.867 33.3311 380.877 33.2686 380.885C33.339 380.874 33.4094 380.864 33.4798 380.854Z" fill="#231F20"></path><path d="M451.235 396.096C440.446 400.644 428.58 401.147 417.042 401.757C404.511 402.594 391.815 402.745 379.513 405.491C363.426 408.914 348.569 416.356 332.854 421.031C316.448 426.118 299.352 429.09 282.14 428.811C261.229 428.916 240.854 423.894 220.321 420.653C210.778 419.367 201.238 417.868 191.614 417.344C180.483 417.029 169.339 417.667 158.309 419.188C141.833 421.346 125.305 423.125 108.722 424.178C92.1492 425.406 75.48 425.756 59.0586 422.82C43.8966 420.236 28.5677 416.027 15.7288 407.282C9.3824 402.412 -2.55689 397.786 0.491162 387.901C2.91344 382.514 27.058 382.332 33.4565 380.859C36.4603 380.436 39.4692 380.056 42.4703 379.636C52.4515 378.366 62.4561 377.331 72.4633 376.319C76.4761 375.912 80.4889 375.511 84.499 375.099C85.5968 374.945 86.6893 374.765 87.7922 374.64C90.0528 374.536 89.7634 377.905 87.7896 378.183C85.9461 378.496 84.0766 378.627 82.2202 378.874C79.3885 379.091 76.5569 379.323 73.7253 379.568C59.0169 380.83 44.3372 382.452 29.7019 384.405C20.9254 385.565 11.6691 385.489 3.33844 388.697C2.27202 396.091 11.3223 398.959 16.0287 402.792C23.9917 408.502 33.115 412.033 42.366 415.065C53.969 418.244 65.95 420.03 77.9336 420.961C97.4161 421.777 116.867 419.579 136.261 418.001C151.885 416.447 167.394 413.417 183.137 413.313C222.895 412.528 261.414 428.989 301.32 424.04C325.199 421.873 347.27 412.114 369.848 404.818C378.52 402.289 387.476 400.831 396.482 400.182C414.484 398.318 433.395 400.352 450.516 393.557C455.704 391.082 464.463 386.671 462.387 379.923C462.272 379.805 462.15 379.698 462.022 379.602C462.009 379.592 461.999 379.584 461.986 379.573C461.975 379.568 461.965 379.56 461.954 379.552C461.946 379.545 461.936 379.539 461.926 379.532C461.733 379.404 461.532 379.292 461.315 379.2C461.386 379.234 461.456 379.271 461.529 379.307C455.65 376.942 449.178 376.992 442.933 376.992C439.755 376.457 384.129 379.798 374.061 376.682C372.281 376.132 371.923 375.378 373.527 374.369C373.806 374.356 374.085 374.345 374.366 374.335C383.555 373.993 392.819 374.966 402.034 374.272C418.651 374.082 435.278 372.598 451.898 373.386C456.554 374.051 462.747 374.035 465.644 378.296C468.014 387.083 458.121 393.111 451.235 396.096Z" fill="#231F20"></path><path d="M303.898 404.106C302.957 405.037 302.592 407.462 301.009 407.256C299.234 406.482 303.953 401.835 304.566 400.675C307.124 399.794 304.383 403.397 303.898 404.106Z" fill="#231F20"></path><path d="M308.352 404.745C308.081 405.459 307.726 406.667 306.722 406.328C305.437 405.501 307.236 404.148 307.643 403.267C308.133 402.792 308.493 401.105 309.361 401.64C309.361 401.637 309.364 401.637 309.364 401.637C309.671 402.67 308.626 403.746 308.352 404.745Z" fill="#231F20"></path><path d="M320.64 402.258C320.267 402.92 320.014 404.419 318.958 403.947C318.15 403.329 319.175 402.531 319.576 402.005C319.994 401.585 320.116 400.902 320.57 400.552C320.57 400.552 320.571 400.553 320.572 400.555C321.694 400.31 320.851 401.783 320.64 402.258Z" fill="#231F20"></path><path d="M399.371 388.037C399.371 388.037 399.35 388.047 399.34 388.053C399.337 388.053 399.332 388.055 399.329 388.055C399.342 388.05 399.355 388.045 399.371 388.037Z" fill="#231F20"></path><path d="M404.286 387.26C404.32 387.75 403.939 388.277 403.444 388.358C402.064 388.235 398.401 390.418 397.877 389.599C397.478 388.681 398.709 388.36 399.34 388.053C400.521 387.805 403.819 385.403 404.286 387.26Z" fill="#231F20"></path><path d="M409.537 390.96C409.55 392.741 406.823 392.185 405.798 393.21C405.574 393.815 404.56 393.872 404.502 393.137C404.312 392.175 409.383 389.32 409.537 390.96Z" fill="#231F20"></path><path d="M42.394 396.047C41.7396 394.748 41.4111 393.317 40.7566 392.016C40.3316 391.34 39.9196 390.12 40.9965 389.852C42.574 390.013 43.3796 393.742 44.0341 395.074C44.4226 395.989 42.9599 396.988 42.394 396.047Z" fill="#231F20"></path><path d="M49.4546 392.978C49.014 393.28 48.383 393.197 48.1561 392.663C47.7546 391.69 47.4939 390.665 47.1888 389.661C47.108 389.291 46.9489 388.97 46.7951 388.631C46.5839 387.735 47.9788 387.08 48.3465 388.042C48.4951 389.422 50.7609 392.128 49.4546 392.978Z" fill="#231F20"></path><path d="M351.666 249.396C350.336 236.492 345.267 230.954 334.392 224.553C320.833 216.775 297.096 214.616 281.712 216.668C280.072 217.143 278.017 216.963 276.562 217.891C276.377 218.008 276.2 218.144 276.036 218.303C275.105 219.458 275.384 221.247 276.437 222.232C277.332 222.806 278.299 223.275 279.305 223.685C284.106 225.643 289.787 226.284 292.767 231.019C298.976 243.775 285.923 258.285 279.086 268.258C272.803 278.594 263.575 287.086 258.733 298.264C254.767 294.431 250.744 290.671 247.073 286.539C242.4 280.15 237.65 273.841 232.774 267.606C230.187 264.428 228.985 260.478 226.967 257.007C226.959 256.999 226.951 256.991 226.944 256.986C226.073 256.087 224.73 256.345 223.601 256.295C222.555 256.102 221.627 255.769 220.78 256.77C220.78 256.77 220.761 256.793 220.754 256.804C219.585 256.937 219.742 259.364 220.172 262.125C220.177 262.172 220.185 262.219 220.193 262.264C220.662 265.215 221.418 268.511 221.192 269.789C221.239 271.601 221.299 273.413 221.361 275.225V275.238C221.439 277.491 221.525 279.744 221.609 281.999V282.004C221.963 291.433 222.289 300.861 221.901 310.302V310.026C221.888 311.249 221.87 312.474 221.864 313.697C221.864 313.752 221.862 313.804 221.862 313.856C221.859 314.42 221.856 314.977 221.851 315.541C221.747 317.747 221.773 319.947 222.018 322.132C222.023 322.109 222.026 322.085 222.031 322.059C222.062 323.274 222.425 324.351 223.012 325.316C224.79 328.239 228.625 330.106 231.538 331.501C231.84 335.208 232.834 338.814 233.376 342.491C233.582 343.226 233.673 344.36 233.976 345.265C234.304 346.258 234.883 346.978 236.14 346.605C253.549 348.678 270.988 350.313 288.366 352.673C296.942 354.021 305.429 355.908 314.119 356.487C319.246 356.495 324.69 357.191 329.636 355.64C329.73 356.187 330.126 356.693 330.671 356.855C332.092 357.1 332.692 356.214 332.984 355.066C333.239 354.044 333.25 352.813 333.37 351.984C333.93 348.17 333.837 344.308 334.014 340.475V340.47C334.089 338.864 334.215 337.263 334.455 335.672C334.452 335.683 334.449 335.691 334.447 335.701C334.525 335.224 334.009 334.822 333.571 335.078C333.584 332.564 332.747 330.147 332.856 327.636C332.88 325.107 331.32 323.034 330.29 320.842C327.428 310.821 323.908 300.887 322.625 290.499C322.223 287.36 322.174 284.171 321.61 281.063C321.55 280.716 321.483 280.375 321.407 280.03C323.363 276.218 326.609 273.116 329.367 269.859C333.503 265.223 338.201 261.26 343.414 257.891C344.657 256.89 346.493 256.178 348.141 255.346C349.017 254.903 349.836 254.426 350.487 253.85C351.671 252.809 352.297 251.448 351.669 249.396H351.666ZM263.778 295.461C263.823 295.385 263.867 295.31 263.914 295.237C263.859 295.328 263.804 295.422 263.75 295.513L263.778 295.461ZM329.73 353.006C329.73 353.006 329.727 353.025 329.727 353.033C329.639 353.051 329.55 353.069 329.461 353.09L329.73 353.006Z" fill="#264CAA"></path><path d="M201.167 276.771C201.019 276.821 200.862 276.855 200.693 276.878C193.7 276.331 186.738 275.238 179.724 274.993C179.544 274.985 179.367 274.98 179.187 274.975C178.777 274.902 178.311 274.894 177.815 274.91C175.531 274.988 172.65 275.614 172.042 273.058C171.542 259.823 174.798 246.536 188.091 240.912C188.224 240.385 188.508 239.95 188.878 239.634C189.835 238.81 191.353 238.774 192.221 239.968C192.234 239.978 192.245 239.989 192.258 240.002C193.786 241.352 195.407 242.617 196.513 244.364C197.645 245.9 198.581 247.561 199.441 249.263C200.187 250.731 200.88 252.23 201.595 253.706C203.373 258.449 203.17 263.58 203.318 268.563C203.008 270.918 203.954 275.895 201.167 276.771Z" fill="#264CAA"></path><path d="M259.262 378.867C255.776 378.767 252.311 378.327 248.822 378.329C246.311 378.15 237.623 379.062 237.211 375.944C237.107 374.583 237.347 373.206 237.579 371.863C237.485 369.438 236.763 367.073 236.7 364.651C236.7 364.651 236.703 364.651 236.705 364.654C236.718 363.386 238.278 362.208 239.417 363.006C239.915 362.839 240.546 363.071 240.838 363.483C240.838 363.483 240.838 363.478 240.838 363.475C241.266 364.08 241.107 364.865 241.057 365.556C246.181 367.115 250.754 370.033 255.789 371.832C258.558 372.83 262.042 372.259 264.43 374.1C268.956 371.422 268.67 380.428 259.257 378.867H259.262Z" fill="#264CAA"></path><path d="M275.636 380.96C272.607 380.624 269.063 380.809 266.437 379.151C265.78 378.092 266.99 377.12 268.036 377.446C270.792 378.09 275.717 376.199 277.649 378.27C278.317 379.571 277.089 381.245 275.636 380.96Z" fill="#264CAA"></path><path d="M283.816 381.351C283.803 381.414 283.785 381.471 283.767 381.526C283.292 382.96 281.391 382.345 280.233 382.23C277.417 381.977 274.604 381.995 271.801 381.437C271.501 381.385 271.196 381.357 270.891 381.325C270.409 381.273 269.926 381.213 269.478 381.028C269.165 380.864 269.066 380.543 269.121 380.238H269.123C269.186 379.881 269.452 379.544 269.827 379.5V379.495C270.179 379.453 270.531 379.427 270.886 379.409C272.164 379.351 273.444 379.43 274.724 379.484H274.729C275.423 379.511 276.116 379.531 276.81 379.518C277.146 379.422 277.483 379.351 277.819 379.307C279.61 379.059 281.381 379.484 283.133 380.035C283.694 380.175 283.92 380.838 283.816 381.351Z" fill="#264CAA"></path><path d="M206.702 236.156C206.447 236.122 206.201 236.064 205.975 235.981C205.73 235.848 205.516 235.707 205.328 235.561C204.079 234.591 204.087 233.389 204.78 232.268C204.939 232.007 205.138 231.754 205.365 231.507C206.869 229.867 209.677 228.594 211.667 228.845C211.839 228.868 212.008 228.899 212.167 228.946C212.373 229.006 212.566 229.084 212.743 229.186C216.553 232.427 210.35 236.648 206.702 236.156Z" fill="#264CAA"></path><path d="M245.047 220.185C242.604 222.29 239.525 224.582 236.13 224.162C232.772 222.994 232.506 221.114 233.601 219.325C233.856 218.903 234.193 218.483 234.579 218.081C235.361 217.27 236.359 216.522 237.384 215.928C237.616 215.792 237.848 215.664 238.08 215.547C238.716 215.224 239.345 214.965 239.924 214.796C240.881 214.374 241.942 214.28 242.92 214.439C243.371 214.512 243.804 214.637 244.205 214.812C246.301 215.714 247.441 217.878 245.047 220.185Z" fill="#264CAA"></path><path d="M283.112 233.215C280.288 231.355 278.763 228.112 277.308 225.171C277.297 225.15 277.287 225.134 277.279 225.111C277.266 225.087 277.253 225.059 277.243 225.035C277.243 225.033 277.24 225.033 277.24 225.03C277.24 225.027 277.237 225.027 277.237 225.025C277.237 225.025 277.237 225.022 277.235 225.02C274.114 219.416 271.981 213.362 270.276 207.195C268.612 202.844 269.798 201.464 272.182 197.882C275.167 193.243 273.078 188.826 267.436 188.714C265.439 190.85 263.707 193.387 263.035 196.278C261.369 200.038 259.337 193.931 258.605 192.495C257.757 190.495 256.772 188.555 255.653 186.693C244.142 164.846 222.14 167.816 204.402 178.433C203.951 178.702 203.503 178.978 203.059 179.257C202.074 179.875 201.104 180.516 200.149 181.176C199.751 181.455 199.354 181.737 198.96 182.018C198.408 182.42 197.86 182.824 197.318 183.236C197.195 183.33 197.075 183.424 196.953 183.518C196.523 183.807 196.098 184.102 195.675 184.407C191.17 187.64 187.178 191.624 184.364 196.422C184.388 196.388 184.411 196.351 184.435 196.315C183.413 197.923 182.424 199.709 182.461 201.66C184.677 205.208 186.416 208.984 188.213 212.765C188.38 213.049 188.547 213.336 188.713 213.62C188.878 213.899 189.039 214.178 189.204 214.457C189.376 214.749 189.548 215.041 189.717 215.333C189.868 215.589 190.017 215.844 190.168 216.1C190.846 217.255 191.524 218.407 192.205 219.557C192.411 219.909 192.619 220.258 192.828 220.608C196.262 226.399 199.766 232.148 203.51 237.741C208.704 245.704 215.257 256.869 226.268 255.474C229.566 255.208 232.526 253.683 235.623 252.668C235.965 252.28 236.617 252.34 236.943 252.726C238.223 252.309 238.444 254.045 238.862 254.872C239.805 256.945 240.801 258.991 241.623 261.116C242.728 262.584 240.598 264.72 239.503 262.895C238.001 260.128 237.232 257.02 235.738 254.248C232.539 255.763 229.624 256.647 226.943 256.986C224.74 257.265 222.696 257.177 220.779 256.77H220.774C220.112 256.629 219.468 256.452 218.834 256.238C212.141 253.969 207.038 247.67 202.131 239.707C198.335 233.9 194.471 228.075 190.99 222.05C190.601 221.38 190.218 220.704 189.842 220.029C189.318 219.093 188.807 218.154 188.309 217.208C188.09 216.798 187.876 216.386 187.665 215.974C186.124 212.979 184.708 209.923 183.467 206.786C180.466 201.482 178.357 195.757 177.59 189.679V189.674C177.588 189.64 177.588 189.608 177.585 189.574C177.549 189.123 177.541 188.672 177.551 188.219C177.559 187.906 177.572 187.593 177.593 187.28C177.616 186.881 177.645 186.48 177.676 186.081C177.681 186.034 177.684 185.984 177.687 185.94C178.041 178.397 180.711 171.581 184.867 165.696C185.313 165.06 185.777 164.442 186.257 163.832C193.714 154.335 205.072 147.491 216.464 144.224C211.314 134.235 207.703 106.949 218.881 100.206C221.817 98.3389 225.527 97.0039 228.75 98.9673C236.664 103.82 236.674 115.613 235.756 123.842C235.169 130.256 231.334 135.745 229.861 141.859C229.741 142.347 229.639 142.837 229.553 143.332C229.678 143.348 229.801 143.364 229.926 143.379C237.746 144.425 244.188 149.368 249.153 155.282C249.401 155.577 249.646 155.876 249.886 156.176C250.107 156.453 250.326 156.732 250.543 157.011C256.065 163.56 261.006 170.647 264.32 178.584C265.311 180.553 266.012 182.641 266.68 184.738C266.774 185.032 266.873 185.33 266.967 185.627C267.055 185.898 267.141 186.167 267.225 186.438C278.093 187.053 276.885 196.127 271.806 202.945C272.888 208.04 274.489 213.08 276.562 217.891C277.274 219.534 278.038 221.15 278.856 222.733C279.008 223.051 279.156 223.366 279.305 223.685C279.469 224.026 279.631 224.37 279.79 224.714C281.146 227.322 282.53 230.174 285.146 231.721C286.488 233.329 284.627 234.675 283.112 233.215Z" fill="#231F20"></path><path d="M218.512 238.059C216.241 237.373 216.718 234.036 216.134 232.161C215.059 226.667 214.207 221.035 211.918 215.886C211.555 215.294 211.096 213.928 212.199 213.909C213.99 214.973 214.634 217.482 215.521 219.294C217.497 224.621 218.913 230.198 219.461 235.861C220.944 235.269 222.115 233.517 222.53 232.007C222.522 232.047 222.514 232.088 222.506 232.13C222.902 230.915 222.475 229.606 222.728 228.43C223.174 227.588 224.347 228.141 224.172 229.017C224.498 232.612 222.663 237.835 218.512 238.059Z" fill="#231F20"></path><path d="M222.529 246.064C222.216 246.168 222.68 246.945 222.959 246.76C223.074 246.987 223.275 247.169 223.536 247.203C226.112 246.16 228.698 244.786 231.175 243.488C234.166 239.112 221.843 237.545 222.529 246.064ZM229.345 243.039H229.342C227.538 243.774 225.911 244.867 224.088 245.555C224.083 245.062 224.065 244.57 224.081 244.077C224.083 244.02 224.078 243.96 224.065 243.902C225.16 241.725 228.25 241.905 230.229 242.567C229.958 242.763 229.647 242.896 229.345 243.039Z" fill="#231F20"></path><path d="M205.729 237.089C205.659 236.849 205.5 236.27 205.328 235.561C205.075 234.508 204.801 233.175 204.78 232.268C204.764 231.684 204.853 231.28 205.119 231.238C205.21 231.301 205.291 231.392 205.364 231.507C205.99 232.461 206.086 235.016 206.623 236.051C206.613 236.025 206.605 235.994 206.595 235.965C206.639 236.025 206.676 236.088 206.702 236.156C206.996 236.852 206.399 237.897 205.729 237.089Z" fill="#231F20"></path><path d="M209.133 235.619C207.772 234.477 208.204 232.013 207.764 230.37C207.751 229.744 208.64 229.692 208.632 230.341C208.632 230.318 208.629 230.292 208.627 230.268C208.629 230.297 208.635 230.323 208.64 230.349C208.64 230.344 208.64 230.339 208.64 230.333C208.502 231.483 210.71 235.806 209.135 235.616L209.133 235.619Z" fill="#231F20"></path><path d="M212.271 233.126C211.958 231.851 212.097 230.487 211.75 229.21C211.698 229.105 211.653 228.959 211.666 228.845C211.679 228.743 211.739 228.662 211.878 228.646C211.99 228.733 212.086 228.834 212.167 228.946C212.788 229.781 212.691 231.22 213.132 232.172C213.64 232.87 212.887 234.093 212.271 233.126Z" fill="#231F20"></path><path d="M234.038 222.305C234.028 221.804 233.759 220.532 233.6 219.325C233.428 218.037 233.381 216.824 233.905 216.704C234.476 216.517 234.836 217.244 234.523 217.682C234.536 217.815 234.555 217.948 234.578 218.081C234.604 218.264 234.635 218.449 234.667 218.631C234.836 219.505 235.879 223.948 234.038 222.305Z" fill="#231F20"></path><path d="M238.012 220.128C237.084 219.194 237.775 217.573 237.535 216.384C237.431 216.3 237.376 216.157 237.384 216.021C237.381 215.993 237.379 215.961 237.384 215.927C237.392 215.581 237.645 215.158 238.012 215.445C238.036 215.479 238.059 215.513 238.08 215.547C238.581 216.332 238.495 217.367 238.698 218.256C238.907 218.934 239.209 220.456 238.012 220.128Z" fill="#231F20"></path><path d="M244.17 218.256C243.782 218.402 243.333 218.125 243.258 217.714C243.125 217.109 243.054 216.493 243.033 215.873C243.036 215.912 243.039 215.948 243.041 215.985C243.099 215.518 243 214.978 242.919 214.439C242.799 213.651 242.718 212.869 243.216 212.332C244.28 212.027 244.103 213.748 244.204 214.811C244.228 215.049 244.267 215.255 244.335 215.398C244.402 216.29 245.234 217.706 244.17 218.256Z" fill="#231F20"></path><path d="M210.121 215.109C207.352 214.561 204.301 214.963 201.743 216.253C201.182 216.532 200.648 216.858 200.145 217.223C199.714 217.534 199.31 217.875 198.932 218.245C198.567 218.603 198.231 218.986 197.923 219.395C197.871 219.44 197.821 219.481 197.772 219.526C197.472 219.784 197.198 220.037 196.951 220.282C196.513 220.712 196.15 221.119 195.866 221.505C194.08 223.919 195.297 225.494 199.667 226.412C204.416 227.048 208.939 223.505 210.686 219.252C211.257 218.068 211.961 215.442 210.121 215.109ZM207.229 221.262C205.79 222.618 203.907 223.538 201.957 223.867C201.871 223.883 201.787 223.896 201.701 223.909C200.254 224.073 198.812 223.507 197.535 222.879C198.033 221.786 199.297 221.103 199.592 219.961C202.41 217.69 206.322 217.638 209.735 216.905C209.38 218.613 208.47 220.102 207.229 221.262Z" fill="#231F20"></path><path d="M207.228 221.262C207.406 220.175 206.973 219.119 205.547 218.597C202.788 217.476 200.436 221.786 201.956 223.867C201.87 223.883 201.787 223.896 201.701 223.909C200.254 224.073 198.812 223.507 197.534 222.879C198.032 221.786 199.297 221.103 199.591 219.961C202.41 217.69 206.321 217.638 209.734 216.905C209.38 218.613 208.47 220.102 207.228 221.262Z" fill="white"></path><path d="M243.6 198.32C243.178 198.085 242.643 197.876 241.986 197.697C241.345 197.522 240.588 197.373 239.705 197.256C239.496 197.227 239.28 197.201 239.055 197.178C238.828 197.172 238.602 197.178 238.375 197.183C237.809 197.199 237.243 197.248 236.675 197.329C236.213 197.392 235.749 197.475 235.288 197.579C232.174 198.273 229.142 199.809 226.761 201.748C224.295 204.358 218.746 211.638 225.578 212.209C230.527 212.178 236.831 210.056 240.39 206.536C244.09 202.992 246.583 199.988 243.6 198.32ZM236.127 207.055H236.125C234.769 207.696 233.343 208.223 231.919 208.663H231.916C230.571 209.08 229.225 209.419 227.945 209.709C226.738 209.777 225.377 209.784 224.373 209.021C225.781 204.442 230.245 201.759 234.56 200.296C237.462 198.797 240.708 199.29 243.741 200.082C242.265 203.321 239.397 205.514 236.127 207.055Z" fill="#231F20"></path><path d="M207.229 221.262C206.916 223.192 204.671 225.21 202.619 224.474C202.345 224.308 202.126 224.102 201.957 223.867C200.436 221.786 202.788 217.476 205.547 218.597C206.973 219.119 207.406 220.175 207.229 221.262Z" fill="#231F20"></path><path d="M236.126 207.055H236.124C235.164 208.358 233.303 209.213 231.918 208.663H231.915C231.511 208.502 231.146 208.223 230.857 207.798C228.27 204.379 234.385 200.578 236.473 204.181C236.997 205.154 236.755 206.202 236.126 207.055Z" fill="#231F20"></path><path d="M196.411 221.661C196.228 221.609 196.048 221.557 195.866 221.505C194.854 221.2 193.856 220.861 192.828 220.608C192.674 220.571 192.521 220.535 192.364 220.501C191.936 220.621 191.66 220.045 191.887 219.706C191.903 219.614 192.017 219.57 192.205 219.557C192.249 219.554 192.299 219.552 192.354 219.552C193.407 219.552 195.926 220.193 196.619 220.128C196.755 220.151 196.867 220.206 196.951 220.282C197.412 220.699 197.143 221.755 196.411 221.661Z" fill="#231F20"></path><path d="M199.629 218.989C199.634 219.343 199.365 219.734 198.987 219.74C198.614 219.664 198.205 219.596 197.772 219.526C195.929 219.223 193.72 218.871 192.578 217.75C192.516 217.333 192.959 217.01 193.319 217.263C194.443 217.768 195.684 217.925 196.893 218.097C197.423 218.274 198.312 218.1 198.932 218.246C199.303 218.332 199.579 218.532 199.629 218.989Z" fill="#231F20"></path><path d="M201.526 217.706C201.059 217.565 200.601 217.398 200.144 217.223C199.054 216.804 197.983 216.329 196.864 215.995C196.345 215.842 195.516 215.573 195.803 214.874C195.965 214.444 196.58 214.355 196.76 214.812C198.329 215.521 200.168 215.706 201.743 216.254C201.883 216.298 202.019 216.35 202.155 216.405C202.54 216.871 202.178 217.808 201.526 217.706Z" fill="#231F20"></path><path d="M236.675 197.329C236.615 198.374 236.346 199.193 235.462 198.752C235.186 198.424 235.22 197.999 235.288 197.579C235.322 197.355 235.369 197.136 235.382 196.933C235.551 195.736 235.538 194.523 235.548 193.324C235.603 192.745 236.419 192.656 236.513 193.267C236.597 193.686 236.586 194.13 236.625 194.557C236.581 195.027 236.732 196.291 236.675 197.329Z" fill="#231F20"></path><path d="M240.009 193.444C240.009 193.465 240.009 193.488 240.004 193.509C240.006 193.509 240.006 193.504 240.006 193.501C240.006 193.512 240.004 193.525 240.004 193.535C240.001 193.559 240.001 193.579 239.999 193.603C239.999 193.611 239.996 193.616 239.996 193.624C239.993 193.676 239.988 193.728 239.985 193.778C239.793 194.474 239.923 196.111 239.704 197.256C239.576 197.918 239.336 198.414 238.849 198.474C238.317 198.221 238.267 197.736 238.374 197.183C238.512 196.482 238.903 195.676 238.898 195.115C239.242 194.044 239.081 192.573 239.777 191.718C240.348 191.924 239.941 192.943 240.009 193.444Z" fill="#231F20"></path><path d="M243.842 197.587C243.852 197.897 243.756 198.145 243.599 198.32C243.099 198.883 241.996 198.721 241.985 197.696V197.649C242.061 196.786 242.496 195.999 242.614 195.136C242.606 195.17 242.598 195.204 242.59 195.24C242.692 194.664 242.773 194.088 242.812 193.504C242.83 193.261 242.82 193.003 242.867 192.763C242.893 192.336 243.419 191.997 243.761 192.341C244.176 193.352 243.829 194.638 243.808 195.746C243.74 196.361 243.795 196.974 243.842 197.587Z" fill="#231F20"></path><path d="M199.05 204.768C196.367 208.118 193.619 211.43 191.061 214.879C190.761 215.283 190.464 215.69 190.169 216.099C189.95 216.405 189.731 216.71 189.515 217.017C189.515 217.017 189.514 217.016 189.512 217.015C189.277 217.249 188.946 217.39 188.61 217.341C188.498 217.301 188.399 217.26 188.31 217.208C187.794 216.931 187.629 216.485 187.666 215.974C187.723 215.216 188.232 214.319 188.714 213.62C188.905 213.349 189.09 213.109 189.243 212.918C189.259 212.9 189.275 212.882 189.29 212.864C189.301 212.853 189.306 212.845 189.314 212.838C189.76 212.287 190.226 211.756 190.701 211.234C192.305 209.477 194.007 207.818 195.373 205.865C196.33 204.961 196.899 203.331 198.187 202.929C199.099 202.909 199.485 204.072 199.05 204.768Z" fill="#231F20"></path><path d="M245.023 187.066C242.058 187.572 239.065 188.013 236.153 188.798C236.108 188.808 236.064 188.821 236.02 188.834C235.814 188.894 235.613 188.951 235.41 189.009C228.098 191.381 220.594 193.277 213.32 195.645C211.781 195.433 211.539 193.123 212.72 192.307C215.189 191.23 217.89 190.672 220.482 189.927C225.434 188.691 230.294 187.116 235.261 185.94C238.265 185.267 241.391 184.991 244.429 185.551C245.672 185.275 246.421 186.639 245.023 187.066Z" fill="#231F20"></path><path d="M199.065 205.224C199.091 205.18 199.122 205.135 199.151 205.091C196.995 208.11 194.82 211.13 192.353 213.904C192.15 214.46 191.587 215.038 191.06 214.879C190.909 214.835 190.758 214.725 190.622 214.538C190.265 214.723 190.108 215.307 189.717 215.333C189.642 215.341 189.558 215.325 189.464 215.283C189.266 215.075 189.185 214.793 189.204 214.457C189.243 213.643 189.845 212.499 190.7 211.234C192.745 208.215 196.231 204.507 196.929 202.95C199.657 199.725 201.586 202.374 199.065 205.224Z" fill="#231F20"></path><path d="M195.902 187.846C195.842 186.717 195.751 185.567 195.675 184.407C195.516 181.943 195.435 179.45 195.892 177.095C196.533 176.026 197.824 177.307 197.156 178.154C197.138 178.772 197.167 179.392 197.182 180.008C197.214 181.085 197.261 182.159 197.318 183.236C197.391 184.605 197.485 185.974 197.594 187.342C197.751 188.349 196.186 188.996 195.902 187.846Z" fill="#231F20"></path><path d="M200.061 186.052C199.702 186.216 199.224 186.067 199.099 185.661C198.87 184.459 198.888 183.241 198.961 182.018C199.042 180.691 199.185 179.359 199.144 178.042C199.251 177.34 198.64 176.136 199.571 175.859C199.78 175.826 199.986 175.927 200.09 176.112C200.252 177.771 200.15 179.476 200.15 181.176C200.15 182.01 200.171 182.842 200.262 183.666C200.366 184.456 201.047 185.569 200.061 186.052Z" fill="#231F20"></path><path d="M292.767 231.019C289.787 226.284 284.105 225.643 279.305 223.685C279.469 224.026 279.631 224.37 279.79 224.714C281.146 227.322 282.53 230.174 285.146 231.721C286.488 233.329 284.627 234.675 283.112 233.215C280.288 231.356 278.763 228.112 277.308 225.171C277.297 225.15 277.287 225.134 277.279 225.111C277.266 225.087 277.253 225.059 277.243 225.035C277.243 225.033 277.24 225.033 277.24 225.03C277.24 225.027 277.237 225.027 277.237 225.025C277.237 225.025 277.237 225.022 277.235 225.02C274.114 219.416 271.981 213.362 270.276 207.195C268.612 202.844 269.798 201.464 272.182 197.882C275.167 193.243 273.079 188.826 267.436 188.714C265.439 190.85 263.708 193.387 263.035 196.278C261.369 200.038 259.338 193.931 258.605 192.495C257.757 190.495 256.772 188.555 255.653 186.693C244.142 164.846 222.14 167.816 204.402 178.433C204.418 179.004 204.436 179.573 204.423 180.13V180.159L204.431 180.449C204.433 180.498 204.434 180.548 204.436 180.597V180.602C204.199 181.963 205.784 185.807 203.216 185.155C202.243 183.684 203.213 181.074 203.059 179.257C202.074 179.875 201.104 180.516 200.15 181.176C200.15 182.01 200.17 182.842 200.262 183.666C200.366 184.456 201.046 185.57 200.061 186.052C199.701 186.216 199.224 186.068 199.099 185.661C198.869 184.459 198.888 183.241 198.961 182.018C198.408 182.42 197.86 182.824 197.318 183.236C197.391 184.605 197.485 185.974 197.594 187.343C197.751 188.349 196.186 188.996 195.902 187.846C195.842 186.717 195.751 185.567 195.675 184.407C191.17 187.64 187.178 191.624 184.364 196.422C184.388 196.388 184.411 196.351 184.435 196.315C183.413 197.923 182.424 199.709 182.461 201.66C184.677 205.208 186.416 208.984 188.213 212.765C188.38 213.049 188.547 213.336 188.713 213.62C188.904 213.349 189.089 213.109 189.243 212.919C189.258 212.9 189.274 212.882 189.29 212.864C189.3 212.853 189.305 212.846 189.313 212.838C189.759 212.288 190.226 211.756 190.7 211.234C192.745 208.215 196.231 204.507 196.929 202.95C199.657 199.725 201.586 202.374 199.065 205.224C199.091 205.18 199.122 205.135 199.151 205.091C196.995 208.111 194.82 211.13 192.353 213.904C192.15 214.46 191.587 215.038 191.06 214.879C190.76 215.283 190.463 215.69 190.168 216.1C190.846 217.255 191.524 218.407 192.205 219.557C192.249 219.554 192.299 219.552 192.353 219.552C193.407 219.552 195.926 220.193 196.619 220.128C196.755 220.152 196.867 220.206 196.95 220.282C197.198 220.037 197.472 219.784 197.772 219.526C195.928 219.223 193.72 218.871 192.578 217.75C192.515 217.333 192.958 217.01 193.318 217.262C194.442 217.768 195.683 217.925 196.893 218.097C197.422 218.274 198.311 218.099 198.932 218.245C199.31 217.875 199.714 217.534 200.144 217.223C199.054 216.804 197.983 216.329 196.864 215.995C196.345 215.841 195.516 215.573 195.803 214.874C195.965 214.444 196.58 214.355 196.76 214.812C198.33 215.521 200.168 215.706 201.743 216.253C204.301 214.963 207.351 214.561 210.12 215.109C211.961 215.443 211.257 218.068 210.686 219.252C208.939 223.505 204.415 227.048 199.667 226.412C195.297 225.494 194.08 223.919 195.866 221.505C194.854 221.2 193.855 220.861 192.828 220.608C196.262 226.399 199.766 232.148 203.51 237.741C208.704 245.704 215.257 256.869 226.268 255.474C229.566 255.208 232.526 253.683 235.623 252.668C235.965 252.28 236.617 252.34 236.943 252.726C238.223 252.309 238.444 254.045 238.862 254.872C239.806 256.945 240.802 258.991 241.623 261.116C242.728 262.584 240.598 264.72 239.503 262.895C238.001 260.128 237.232 257.02 235.738 254.248C232.539 255.763 229.624 256.647 226.943 256.986C226.951 256.991 226.959 256.999 226.967 257.007C228.985 260.478 230.187 264.428 232.773 267.606C237.649 273.841 242.4 280.15 247.072 286.539C250.744 290.671 254.767 294.431 258.733 298.264C263.575 287.086 272.802 278.594 279.086 268.258C285.923 258.285 298.975 243.775 292.767 231.019ZM212.72 192.307C215.189 191.23 217.89 190.672 220.482 189.926C225.434 188.691 230.294 187.116 235.261 185.94C238.265 185.267 241.391 184.991 244.428 185.551C245.672 185.275 246.42 186.639 245.023 187.066C242.058 187.572 239.065 188.013 236.153 188.797C236.108 188.808 236.064 188.821 236.02 188.834C235.814 188.894 235.613 188.951 235.409 189.009C228.098 191.381 220.594 193.277 213.32 195.645C211.781 195.433 211.539 193.123 212.72 192.307ZM236.674 197.329C237.242 197.248 237.808 197.199 238.374 197.183C238.512 196.482 238.903 195.676 238.898 195.115C239.242 194.044 239.081 192.573 239.777 191.718C240.348 191.924 239.941 192.943 240.009 193.444C240.009 193.465 240.009 193.488 240.004 193.509C240.006 193.509 240.006 193.504 240.006 193.501C240.006 193.512 240.004 193.525 240.004 193.535C240.001 193.559 240.001 193.579 239.998 193.603C239.998 193.611 239.996 193.616 239.996 193.624C239.993 193.676 239.988 193.728 239.985 193.778C239.792 194.474 239.923 196.111 239.704 197.256C240.588 197.373 241.344 197.522 241.985 197.697V197.65C242.061 196.787 242.496 195.999 242.614 195.136C242.606 195.17 242.598 195.204 242.59 195.24C242.692 194.664 242.773 194.088 242.812 193.504C242.83 193.261 242.82 193.003 242.867 192.763C242.893 192.336 243.419 191.997 243.761 192.341C244.176 193.353 243.829 194.638 243.808 195.746C243.74 196.362 243.795 196.974 243.842 197.587C243.852 197.897 243.756 198.145 243.599 198.32C246.582 199.988 244.089 202.992 240.39 206.536C236.83 210.056 230.526 212.178 225.577 212.209C218.746 211.638 224.294 204.358 226.761 201.748C229.141 199.809 232.174 198.273 235.287 197.579C235.321 197.355 235.368 197.136 235.381 196.933C235.55 195.736 235.537 194.523 235.548 193.324C235.602 192.745 236.419 192.656 236.512 193.267C236.596 193.686 236.585 194.13 236.624 194.557C236.58 195.027 236.731 196.291 236.674 197.329ZM206.702 236.156C206.997 236.852 206.399 237.897 205.729 237.089C205.659 236.849 205.5 236.27 205.328 235.561C204.079 234.591 204.087 233.389 204.78 232.268C204.765 231.684 204.853 231.28 205.119 231.238C205.211 231.301 205.291 231.392 205.364 231.507C206.869 229.867 209.677 228.594 211.666 228.845C211.679 228.743 211.739 228.662 211.878 228.646C211.99 228.732 212.086 228.834 212.167 228.946C212.373 229.006 212.566 229.084 212.743 229.186C216.553 232.427 210.35 236.649 206.702 236.156ZM218.511 238.059C216.24 237.373 216.717 234.036 216.133 232.161C215.059 226.667 214.206 221.035 211.917 215.886C211.554 215.294 211.095 213.928 212.198 213.909C213.99 214.973 214.634 217.482 215.52 219.294C217.497 224.621 218.912 230.198 219.46 235.861C220.944 235.269 222.114 233.517 222.529 232.007C222.521 232.046 222.513 232.088 222.505 232.13C222.902 230.915 222.474 229.606 222.727 228.43C223.173 227.588 224.346 228.141 224.172 229.017C224.497 232.612 222.662 237.835 218.511 238.059ZM231.175 243.488C228.698 244.786 226.111 246.16 223.535 247.203C223.275 247.169 223.074 246.987 222.959 246.76C222.68 246.945 222.216 246.168 222.529 246.064C221.843 237.545 234.166 239.113 231.175 243.488ZM245.046 220.185C242.603 222.29 239.524 224.581 236.129 224.162C232.771 222.994 232.505 221.114 233.6 219.325C233.428 218.037 233.381 216.824 233.905 216.705C234.476 216.517 234.836 217.244 234.523 217.682C234.536 217.815 234.554 217.948 234.578 218.081C235.36 217.27 236.359 216.522 237.383 215.928C237.391 215.581 237.644 215.158 238.012 215.445C238.035 215.479 238.059 215.513 238.079 215.547C238.716 215.224 239.344 214.965 239.923 214.796C240.88 214.373 241.941 214.28 242.919 214.439C242.799 213.651 242.718 212.869 243.216 212.332C244.28 212.027 244.103 213.748 244.204 214.812C246.301 215.714 247.44 217.878 245.046 220.185Z" fill="white"></path><path d="M230.228 242.567C229.957 242.763 229.647 242.896 229.344 243.039H229.342C227.538 243.775 225.91 244.867 224.088 245.555C224.083 245.063 224.064 244.57 224.08 244.077C224.083 244.02 224.077 243.96 224.064 243.902C225.16 241.725 228.249 241.905 230.228 242.567Z" fill="white"></path><path d="M243.74 200.082C242.264 203.321 239.396 205.514 236.126 207.055C236.755 206.202 236.997 205.154 236.473 204.181C234.384 200.578 228.27 204.379 230.857 207.798C231.146 208.223 231.511 208.502 231.915 208.663C230.57 209.081 229.224 209.419 227.944 209.709C226.737 209.777 225.376 209.785 224.372 209.021C225.78 204.442 230.244 201.759 234.559 200.296C237.461 198.797 240.707 199.29 243.74 200.082Z" fill="white"></path><path d="M204.815 174.264C204.337 175.586 204.363 177.017 204.403 178.433C204.418 179.004 204.437 179.572 204.423 180.13C204.423 180.151 204.423 180.169 204.426 180.188C204.426 180.177 204.426 180.169 204.423 180.159L204.431 180.448C204.434 180.498 204.434 180.548 204.437 180.597V180.602C204.199 181.963 205.785 185.807 203.216 185.155C202.244 183.684 203.214 181.074 203.06 179.257C203.06 179.218 203.057 179.181 203.052 179.142C203.292 177.823 202.838 173.536 204.483 173.377C204.856 173.481 204.971 173.943 204.815 174.264Z" fill="#231F20"></path><path d="M182.868 173.815C180.711 172.939 189.12 163.109 182.677 157.973C175.416 163.698 173.432 151.663 182.73 156.273C183.53 154.75 184.062 152.839 183.686 151.131C183.582 150.852 183.707 150.513 183.96 150.359C185.918 149.999 184.26 155.913 183.598 156.805C186.808 159.253 186.625 163.873 185.655 167.401C185.663 167.372 185.668 167.341 185.676 167.312C185.259 169.211 184.221 170.879 183.603 172.697C184.028 173.174 183.486 174.081 182.868 173.815ZM179.403 158.299C180.14 158.293 180.87 158.012 181.473 157.592C181.462 157.6 181.449 157.608 181.439 157.615C181.517 157.558 181.595 157.498 181.671 157.438C180.73 157.125 177.147 155.696 177.802 157.725C177.796 157.717 177.791 157.707 177.783 157.699C178.201 158.126 178.821 158.27 179.4 158.299H179.403Z" fill="#231F20"></path><path d="M248.316 160.082C248.238 155.551 250.754 150.769 254.551 148.26C254.298 147.397 252.866 146.075 253.904 145.345C254.895 145.077 254.754 146.717 255.21 147.28C255.205 147.267 255.2 147.256 255.195 147.243C255.275 147.418 255.356 147.59 255.44 147.762C264.56 144.555 259.254 156.593 255.142 149.332C252.462 150.868 250.856 153.647 249.776 156.453C249.776 156.45 249.776 156.447 249.779 156.442C249.216 157.013 249.268 161.057 248.316 160.077V160.082ZM258.063 150.669C258.725 150.581 259.408 150.072 259.512 149.387C259.512 149.392 259.512 149.4 259.512 149.405C259.512 149.384 259.512 149.363 259.515 149.342C259.515 149.353 259.512 149.366 259.51 149.376C259.51 149.366 259.51 149.353 259.51 149.342C259.51 149.368 259.51 149.397 259.505 149.423C259.512 149.34 259.505 149.256 259.479 149.178C259.481 149.188 259.484 149.196 259.486 149.207C258.811 148.101 257.041 148.508 256.019 148.878C256.138 149.087 256.264 149.295 256.394 149.496C256.381 149.478 256.37 149.46 256.357 149.441C256.751 150.018 257.273 150.732 258.057 150.669H258.063Z" fill="#231F20"></path><path d="M170.48 190.265C169.915 188.821 175.682 187.009 176.858 187.186C178.227 187.34 179.695 187.588 180.886 188.31C181.517 189.478 179.562 188.482 179.082 188.466C179.09 188.466 179.095 188.469 179.103 188.472C179.004 188.451 178.907 188.432 178.808 188.412C178.814 188.412 178.819 188.412 178.824 188.414C178.788 188.406 178.751 188.401 178.715 188.393C178.717 188.393 178.72 188.393 178.725 188.393C177.382 188.109 175.974 188.065 174.689 188.618C173.995 188.886 173.333 189.223 172.676 189.572C172.678 189.572 172.681 189.569 172.686 189.567C171.998 189.747 171.109 191.016 170.48 190.26V190.265Z" fill="#231F20"></path><path d="M228.364 146.19C228.401 145.793 228.5 145.392 228.641 145.019C228.635 145.035 228.628 145.053 228.622 145.069C228.654 144.985 228.685 144.902 228.716 144.818C228.714 144.826 228.711 144.831 228.708 144.839C228.875 144.399 229.05 143.963 229.219 143.522C229.219 143.525 229.219 143.528 229.217 143.53C231.269 137.909 234.583 131.646 240.314 129.148C240.293 129.156 240.272 129.163 240.251 129.171C241.057 129.054 242.695 127.735 243.187 128.72C243.258 129.028 243.07 129.393 242.76 129.482C241.816 129.755 240.877 130.042 239.962 130.399C236.922 131.567 235.005 134.378 233.178 136.926C233.188 136.91 233.198 136.894 233.209 136.879C232.038 138.527 231.042 140.3 230.364 142.211C230.364 142.211 230.364 142.211 230.364 142.208C230.32 142.323 230.275 142.44 230.234 142.555C230.234 142.555 230.234 142.555 230.234 142.552C230.229 142.568 230.221 142.586 230.216 142.602C230.124 142.842 230.033 143.084 229.942 143.324C229.944 143.316 229.947 143.309 229.952 143.301C229.639 144.242 229.1 145.136 229.058 146.143C229.071 146.599 228.343 146.701 228.367 146.19H228.364Z" fill="#231F20"></path><path d="M185.942 369.894C185.942 369.983 185.931 370.069 185.91 370.15C185.699 371.052 184.44 371.621 183.838 370.721C183.491 369.613 183.238 368.476 183.04 367.326C182.453 363.895 182.383 360.331 181.981 356.894C181.465 349.804 180.526 342.746 180.427 335.633C179.953 321.405 179.147 307.197 178.61 292.974C178.388 287.008 177.134 280.831 177.815 274.909C177.851 274.583 177.895 274.258 177.945 273.932C178.847 273.024 179.387 273.676 179.723 274.993C180.388 277.595 180.26 282.794 180.591 283.668C180.584 283.597 180.576 283.53 180.571 283.459C183.613 311.058 182.662 338.958 185.478 366.593C185.47 366.528 185.465 366.466 185.457 366.403C185.543 367.579 185.884 368.724 185.942 369.894Z" fill="#231F20"></path><path d="M202.669 294.082C200.966 319.72 196.426 345.075 190.719 370.098C190.693 370.314 190.625 370.528 190.518 370.724C190.38 370.987 190.174 371.214 189.921 371.365C189.72 371.482 189.493 371.553 189.246 371.553C188.476 371.548 187.908 370.771 188.015 370.028C188.521 367.021 189.282 364.057 189.929 361.076C192.119 351.76 193.717 342.316 195.261 332.875C198.134 314.287 199.68 295.513 201.167 276.771C201.315 274.915 201.461 273.061 201.61 271.207C201.573 266.316 201.675 261.242 199.983 256.585C196.984 250.523 192.205 245.514 188.878 239.634C188.396 238.789 187.947 237.924 187.538 237.037C185.796 233.194 183.452 229.382 183.465 225.033C183.207 221.807 186.375 218.556 188.868 222.013C189.06 220.949 189.431 220.337 189.843 220.029C190.998 219.163 192.458 220.72 191.073 221.502C191.04 221.685 191.011 221.867 190.99 222.05C190.495 226.029 192.854 229.898 194.445 233.421C195.128 234.907 197.592 238.86 194.33 238.714C192.317 237.373 191.457 234.75 190.761 232.529C190.203 231.113 187.838 220.517 185.752 223.52C184.985 229.043 189.316 235.293 192.257 240.002C192.395 240.221 192.531 240.437 192.661 240.651C194.836 243.485 197.326 246.278 199.441 249.263C201.933 252.781 203.907 256.561 204.246 260.981C205.672 272.036 203.508 283.068 202.669 294.082Z" fill="#231F20"></path><path d="M270.891 381.326C270.873 381.065 270.857 380.807 270.85 380.546C270.839 380.254 270.837 379.959 270.844 379.667C270.863 379.579 270.876 379.493 270.886 379.409C270.951 378.932 270.925 378.515 270.821 378.155C270.758 377.928 270.665 377.727 270.545 377.547C270.034 376.789 269.053 376.458 267.875 376.585C267.528 376.575 267.181 376.562 266.834 376.554C266.824 376.551 266.811 376.551 266.798 376.554C257.08 376.265 247.073 376.408 237.214 375.928C236.025 375.871 234.839 375.806 233.655 375.727C228.821 375.438 223.984 375.342 219.147 375.362C218.402 375.365 217.659 375.373 216.913 375.383C207.039 375.498 197.159 376.066 187.285 376.478C186.409 376.515 185.533 376.549 184.659 376.583C182.584 376.661 180.508 376.731 178.433 376.786C178.141 376.794 177.849 376.802 177.557 376.81C177.434 376.327 177.309 375.842 177.179 375.362C177.434 375.258 177.635 375.125 177.784 374.969C179.069 373.657 176.762 370.745 176.535 369.131C174.616 363.168 172.506 357.27 170.723 351.262C166.449 335.5 163.91 319.066 157.201 304.089C157.196 304.081 157.19 304.073 157.188 304.066C157.162 304.024 157.136 303.98 157.11 303.938C156.612 303.064 155.702 301.896 154.58 302.42C153.013 302.898 151.222 302.433 149.577 302.478C140.18 301.928 130.746 302.045 121.344 302.467C103.087 303.195 84.8063 302.838 66.5571 303.899C62.015 304.141 57.4964 304.626 53.0143 305.375C50.9987 305.716 45.9143 305.591 46.8947 308.767C48.6964 310.566 48.918 313.064 49.6403 315.392C50.532 318.797 51.8279 322.067 53.0169 325.373C59.0634 341.823 64.5442 358.495 71.7146 374.507C71.9727 375.107 72.223 375.712 72.4629 376.319C72.9009 377.396 73.3155 378.481 73.7249 379.568C74.1473 380.684 74.5644 381.8 74.9947 382.913C75.5214 383.941 75.5735 385.531 76.8146 385.962C76.8485 386.126 77.0258 386.233 77.1901 386.191C77.5134 387.062 77.8784 387.92 78.2852 388.757C78.2304 389.257 78.4703 389.74 78.9188 389.977C91.2336 389.14 103.799 389.875 116.205 389.32C128.055 388.676 139.932 388.997 151.798 388.757C168.934 388.532 186.07 388.285 203.208 388.553C211.516 388.845 219.823 388.65 228.13 388.488C240.335 388.631 252.556 388.778 264.74 387.878C266.793 387.325 270.638 388.256 271.071 385.456C271.178 384.079 270.99 382.705 270.891 381.326ZM74.5097 306.603C74.1264 306.626 73.7457 306.652 73.3624 306.681C73.7431 306.65 74.1264 306.629 74.5097 306.603ZM244.332 379.513C244.557 379.519 244.781 379.534 245.005 379.55C244.783 379.537 244.562 379.524 244.332 379.513Z" fill="#231F20"></path><path d="M177.541 379.213C177.429 379.143 177.341 379.049 177.268 378.948C176.201 378.723 176.011 374.564 175.362 373.383C175.169 373.3 175.046 373.104 175.049 372.875C175.049 372.877 175.049 372.88 175.049 372.885C174.332 371.835 176.655 370.523 176.991 372.541C177.567 374.176 177.992 375.853 178.71 377.438C179.33 378.293 178.657 379.79 177.544 379.213H177.541Z" fill="#231F20"></path><path d="M185.901 379.12C185.411 378.374 185.001 377.513 184.66 376.583C183.627 373.756 183.218 370.273 183.04 367.326C183.009 366.784 182.983 366.26 182.965 365.762C183.093 364.411 185.085 364.257 185.165 365.718C185.413 367.126 185.64 368.539 185.875 369.947V369.931C185.885 370.004 185.898 370.077 185.911 370.15C186.245 372.288 186.696 374.4 187.285 376.478C187.332 376.648 187.382 376.817 187.431 376.987C188.01 378.024 187.218 379.87 185.901 379.12Z" fill="#231F20"></path><path d="M190.722 368.992C190.67 369.48 190.704 370.197 190.518 370.724C190.412 371.029 190.232 371.269 189.921 371.365C189.814 371.399 189.695 371.415 189.554 371.412C187.914 371.441 189.663 366.854 190.584 367.191C191.11 367.584 190.584 368.421 190.722 368.992Z" fill="#231F20"></path><path d="M462.386 379.923C462.272 379.805 462.149 379.698 462.021 379.602C462.011 379.591 461.998 379.584 461.985 379.573C461.974 379.568 461.964 379.56 461.953 379.552C461.946 379.545 461.935 379.539 461.925 379.532C461.732 379.404 461.531 379.292 461.315 379.2C461.385 379.234 461.455 379.271 461.528 379.307C455.649 376.942 449.177 376.992 442.932 376.992C439.754 376.457 384.128 379.797 374.061 376.682C374.003 377.01 373.938 377.339 373.865 377.667C369.659 389.341 355.113 387.933 345.006 387.904C332.728 387.721 320.502 386.702 308.336 385.072C300.107 384.191 291.891 383.119 283.766 381.526C283.292 382.96 281.391 382.345 280.233 382.23C277.417 381.977 274.604 381.996 271.801 381.438C271.501 381.385 271.196 381.357 270.891 381.325C270.99 382.705 271.178 384.079 271.071 385.456C270.638 388.256 266.792 387.325 264.74 387.878C252.556 388.777 240.335 388.631 228.129 388.488C219.822 388.65 211.515 388.845 203.208 388.553C186.069 388.285 168.934 388.532 151.798 388.757C139.931 388.996 128.055 388.676 116.204 389.32C103.798 389.875 91.233 389.14 78.9183 389.977C78.4698 389.74 78.2299 389.257 78.2847 388.757C77.8779 387.92 77.5129 387.062 77.1896 386.191C77.0253 386.233 76.848 386.126 76.8141 385.961C75.573 385.531 75.5208 383.941 74.9941 382.913C74.5639 381.8 74.1467 380.684 73.7243 379.568C59.016 380.83 44.3363 382.452 29.701 384.405C20.9245 385.565 11.6682 385.489 3.33753 388.697C2.27111 396.091 11.3214 398.959 16.0278 402.792C23.9908 408.502 33.1141 412.033 42.3651 415.065C53.9681 418.244 65.9491 420.03 77.9327 420.961C97.4152 421.777 116.866 419.579 136.26 418.001C151.884 416.447 167.393 413.417 183.136 413.313C222.894 412.528 261.413 428.989 301.319 424.04C325.198 421.873 347.269 412.114 369.847 404.818C378.519 402.289 387.476 400.831 396.482 400.182C414.483 398.318 433.395 400.352 450.515 393.557C455.703 391.082 464.462 386.671 462.386 379.923ZM42.3938 396.047C41.7393 394.748 41.4108 393.317 40.7564 392.016C40.3313 391.34 39.9194 390.12 40.9962 389.852C42.5737 390.013 43.3794 393.742 44.0339 395.074C44.4224 395.989 42.9596 396.988 42.3938 396.047ZM49.4546 392.978C49.014 393.28 48.383 393.197 48.1562 392.662C47.7546 391.69 47.4939 390.665 47.1888 389.661C47.108 389.291 46.9489 388.97 46.7951 388.631C46.5839 387.734 47.9789 387.08 48.3465 388.042C48.4951 389.421 50.761 392.128 49.4546 392.978ZM303.898 404.106C302.957 405.037 302.592 407.462 301.009 407.256C299.233 406.482 303.953 401.835 304.565 400.675C307.123 399.794 304.383 403.397 303.898 404.106ZM308.351 404.745C308.08 405.46 307.726 406.667 306.722 406.328C305.436 405.501 307.235 404.148 307.642 403.267C308.132 402.792 308.492 401.105 309.36 401.64C309.36 401.637 309.363 401.637 309.363 401.637C309.671 402.67 308.625 403.746 308.351 404.745ZM320.64 402.258C320.267 402.92 320.014 404.419 318.958 403.947C318.15 403.329 319.175 402.531 319.576 402.005C319.993 401.585 320.116 400.902 320.57 400.552C320.57 400.552 320.571 400.553 320.572 400.555C321.693 400.31 320.851 401.783 320.64 402.258ZM403.443 388.358C402.064 388.235 398.401 390.417 397.876 389.599C397.478 388.681 398.708 388.36 399.339 388.053C399.337 388.053 399.331 388.055 399.329 388.055C399.342 388.05 399.355 388.045 399.371 388.037C399.36 388.042 399.35 388.047 399.339 388.053C400.52 387.805 403.819 385.403 404.286 387.26C404.319 387.75 403.939 388.277 403.443 388.358ZM405.798 393.21C405.574 393.815 404.559 393.872 404.502 393.137C404.312 392.175 409.383 389.32 409.537 390.96C409.55 392.741 406.823 392.185 405.798 393.21Z" fill="white"></path><path d="M374.366 374.335C374.301 375.122 374.199 375.905 374.061 376.682C374.004 377.01 373.939 377.339 373.866 377.667C369.66 389.341 355.113 387.933 345.007 387.904C332.729 387.721 320.503 386.702 308.336 385.072C300.107 384.191 291.892 383.119 283.767 381.526C281.658 381.114 279.556 380.666 277.462 380.176C277.301 380.139 277.141 380.103 276.98 380.063C276.221 379.897 275.473 379.701 274.73 379.485H274.724C273.402 379.096 272.107 378.642 270.821 378.155C270.334 377.967 269.851 377.779 269.366 377.584H269.361C268.516 377.25 267.674 376.909 266.829 376.567C266.819 376.562 266.808 376.559 266.798 376.554C265.348 375.967 263.893 375.388 262.417 374.867C253.954 371.994 245.714 368.669 237.699 364.724C237.337 364.875 237.021 365.079 236.74 365.321C235.353 366.502 234.816 368.586 233.53 369.895C230.889 373.06 228.769 370.93 229.791 367.459C228.347 369.918 224.79 375.321 222.85 370.205C222.086 366.643 223.612 363.037 225.061 359.843C223.382 361.139 222.535 363.128 221.536 364.938C221.294 365.397 221.043 365.95 220.78 366.523C219.932 368.367 218.957 370.429 217.701 370.278C217.08 370.202 216.389 369.582 215.609 368.122C214.402 364.325 217.216 360.795 218.853 357.582C219.304 356.714 219.781 355.849 220.065 354.907C217.354 355.849 214.48 356.542 212.102 358.219C210.014 359.588 206.744 365.235 205.086 360.409C205.185 355.442 209.891 351.544 213.758 349.012C215.675 347.773 217.708 346.91 219.813 346.318C220.626 346.089 221.45 345.901 222.282 345.75C226.089 345.049 230.065 345.075 233.973 345.265C235.079 345.317 236.179 345.382 237.269 345.45C244.072 345.914 250.689 347.742 257.463 348.415C260.882 349.069 264.339 349.281 267.81 349.413C271.457 349.724 275.024 350.605 278.685 350.855C290.807 352.602 302.976 354.193 315.215 354.871C321.141 354.949 327.071 354.753 332.982 355.066C333.407 355.087 333.834 355.113 334.259 355.142H334.262C335.625 354.946 337.117 354.717 338.295 353.976C337.638 349.275 335.224 345.041 334.012 340.475V340.47C333.972 340.327 333.936 340.181 333.899 340.037C331.391 331.477 328.367 323.089 325.798 314.55C323.746 305.953 322.591 297.19 321.525 288.429C321.222 286.638 320.615 284.932 320.08 283.201C319.77 282.166 320.693 281.175 321.608 281.063C322.13 280.995 322.646 281.214 322.933 281.864C324.497 285.717 324.987 289.889 325.415 293.996C326.328 301.44 327.623 308.923 329.662 316.143C331.493 321.885 333.764 327.47 335.276 333.308C335.276 333.318 335.281 333.326 335.284 333.334V333.339C336.924 340.225 340.603 346.759 341.07 353.841C339.492 359.011 332.319 357.762 328.106 357.642C323.058 357.739 318.005 357.822 312.957 357.596C293.657 356.117 274.555 352.894 255.338 350.85C240.111 348.991 216.045 342.147 207.206 359.176C207.182 359.275 207.167 359.376 207.156 359.478C207.156 359.687 207.156 359.958 207.344 360.083C207.391 360.031 207.435 359.981 207.482 359.932C207.485 359.927 207.49 359.921 207.493 359.916C210.006 356.568 213.625 354.477 217.586 353.291C219.046 352.79 221.043 351.648 222.423 352.829C223.525 357.207 217.179 361.642 217.281 366.33V366.349C217.281 366.998 217.599 367.616 218.05 368.069C218.063 368.046 218.073 368.02 218.086 367.996C218.629 366.912 219.153 365.806 219.7 364.716C220.577 362.969 221.51 361.251 222.668 359.676C223.815 358.61 227.335 354.016 228.185 357.335C227.869 361.251 222.816 366.588 225.546 370.314C227.833 369.016 231.575 358.096 233.569 360.471C234.406 362.883 230.902 366.667 231.35 369.642C233.142 368.448 233.728 366.163 235.029 364.529C237.924 360.174 242.335 363.733 246.098 364.865C251.983 367.717 258.316 369.42 264.383 371.829C268.519 373.287 272.388 375.414 276.677 376.439C287.36 379.232 298.347 380.486 309.288 381.792C321.905 383.589 334.593 384.637 347.333 384.973C355.465 384.762 366.972 386.725 371.102 377.753C372.168 373.003 371.352 367.983 370.844 363.191C368.557 351.197 367.863 338.994 365.702 326.977C363.011 309.218 359.306 291.62 354.328 274.37C352.451 268.931 350.542 263.515 348.863 258.011C348.72 257.153 348.295 256.241 348.138 255.346C348.039 254.791 348.047 254.241 348.29 253.717C349.273 252.572 349.974 252.981 350.485 253.85C350.975 254.679 351.288 255.928 351.505 256.637C353.291 261.484 354.871 266.399 356.764 271.212C363.243 290.919 366.578 311.473 369.743 331.931C371.219 342.055 371.967 352.263 373.814 362.338C374.236 366.289 374.71 370.354 374.366 374.335Z" fill="#231F20"></path><path d="M223.772 297.39C223.381 306.694 223.23 316.007 223.008 325.316C222.855 331.85 222.664 338.384 222.331 344.913V344.921C222.328 344.942 222.325 344.965 222.323 344.986V344.991C222.357 345.234 222.338 345.494 222.281 345.75C221.981 347.088 220.623 348.329 219.807 346.603C219.809 346.509 219.809 346.412 219.812 346.318C220.044 331.623 220.354 316.842 220.537 302.115C220.675 295.406 221.535 288.71 221.606 282.004V281.999C221.629 279.814 221.569 277.626 221.371 275.439C221.366 275.371 221.363 275.306 221.358 275.238V275.225C221.092 270.996 220.787 266.764 220.203 262.566C220.208 262.475 220.2 262.373 220.19 262.264C220.182 262.219 220.174 262.172 220.169 262.125C219.903 260.574 218.331 257.502 218.834 256.238C219.001 255.821 219.392 255.599 220.132 255.695C220.362 256.047 220.576 256.405 220.774 256.77H220.777C222.028 259.056 222.701 261.588 223.131 264.19C223.626 267.212 223.788 270.333 224.132 273.288C225.04 281.316 224.299 289.365 223.772 297.39Z" fill="#231F20"></path><path d="M221.606 281.999V282.004C221.536 288.71 220.675 295.406 220.537 302.115C220.355 316.842 220.044 331.623 219.812 346.318C217.708 346.91 215.674 347.773 213.758 349.012C209.891 351.544 205.185 355.442 205.086 360.409C206.744 365.235 210.014 359.587 212.102 358.219C214.48 356.542 217.354 355.848 220.065 354.907C219.781 355.848 219.304 356.714 218.853 357.582C217.215 360.795 214.402 364.325 215.609 368.121C216.389 369.582 217.08 370.202 217.7 370.278C217.64 370.656 217.575 371.036 217.505 371.412C217.455 372.687 216.931 374.087 216.913 375.383C207.039 375.498 197.159 376.066 187.285 376.478C186.696 374.4 186.245 372.288 185.911 370.153C185.932 370.069 185.942 369.983 185.942 369.894C185.885 368.724 185.543 367.579 185.457 366.403C185.465 366.466 185.47 366.528 185.478 366.593C182.662 338.958 183.614 311.058 180.571 283.459C180.576 283.529 180.584 283.597 180.592 283.668C180.261 282.794 180.389 277.595 179.724 274.993C186.738 275.238 193.699 276.33 200.692 276.878C200.862 276.855 201.018 276.821 201.167 276.771C199.681 295.513 198.134 314.286 195.261 332.875C193.718 342.316 192.119 351.76 189.929 361.076C189.282 364.056 188.521 367.021 188.015 370.027C187.908 370.771 188.477 371.548 189.246 371.553C189.494 371.553 189.72 371.482 189.921 371.365C190.231 371.269 190.411 371.029 190.518 370.724C190.625 370.528 190.693 370.314 190.719 370.098C196.427 345.075 200.966 319.72 202.669 294.082C203.508 283.068 205.672 272.036 204.246 260.981C203.907 256.561 201.933 252.78 199.441 249.263C198.58 247.56 197.644 245.899 196.513 244.364C195.407 242.617 193.785 241.352 192.257 240.002C189.316 235.293 184.985 229.043 185.752 223.52C187.838 220.516 190.203 231.113 190.761 232.529C191.457 234.75 192.317 237.373 194.33 238.713C197.592 238.859 195.128 234.907 194.445 233.42C192.854 229.898 190.495 226.028 190.99 222.05C194.471 228.075 198.335 233.9 202.132 239.707C207.039 247.67 212.141 253.969 218.835 256.238C218.331 257.502 219.904 260.574 220.17 262.125C220.175 262.172 220.183 262.219 220.19 262.264C220.201 262.373 220.209 262.475 220.204 262.566C220.788 266.764 221.093 270.996 221.359 275.225V275.238C221.437 277.491 221.523 279.744 221.606 281.999Z" fill="white"></path><path d="M371.101 377.753C366.971 386.725 355.465 384.762 347.332 384.973C334.592 384.637 321.905 383.589 309.288 381.792C298.347 380.486 287.359 379.232 276.677 376.439C272.388 375.414 268.518 373.287 264.383 371.829C258.316 369.42 251.982 367.717 246.097 364.865C242.335 363.733 237.923 360.174 235.029 364.529C233.728 366.163 233.141 368.447 231.35 369.642C230.901 366.667 234.406 362.883 233.569 360.471C231.574 358.096 227.832 369.016 225.546 370.314C222.816 366.588 227.869 361.251 228.184 357.335C227.334 354.015 223.814 358.61 222.667 359.676C221.509 361.251 220.576 362.969 219.7 364.716C219.332 364.724 218.949 364.956 218.662 365.498C218.417 366.317 218.24 367.152 218.086 367.996C218.073 368.02 218.062 368.046 218.049 368.069C217.598 367.616 217.28 366.998 217.28 366.349V366.33C217.179 361.642 223.525 357.207 222.422 352.829C221.043 351.648 219.045 352.79 217.585 353.291C213.625 354.477 210.006 356.568 207.492 359.916C207.489 359.921 207.484 359.926 207.482 359.932C207.435 359.981 207.39 360.031 207.343 360.083C207.156 359.958 207.153 359.687 207.156 359.478C207.166 359.376 207.182 359.275 207.205 359.176C216.044 342.147 240.111 348.991 255.338 350.85C274.554 352.894 293.656 356.117 312.956 357.595C318.004 357.822 323.057 357.739 328.105 357.642C332.319 357.762 339.492 359.011 341.069 353.841C340.603 346.759 336.923 340.225 335.283 333.339V333.334C335.283 333.334 335.278 333.318 335.276 333.308C333.763 327.47 331.492 321.884 329.662 316.143C327.623 308.923 326.327 301.44 325.414 293.996C324.987 289.889 324.497 285.717 322.932 281.863C322.645 281.214 322.129 280.995 321.608 281.063C321.548 280.716 321.48 280.375 321.404 280.03C323.36 276.218 326.606 273.116 329.365 269.859C333.5 265.223 338.199 261.26 343.411 257.891C344.654 256.89 346.49 256.178 348.138 255.346C348.294 256.241 348.719 257.153 348.863 258.011C350.542 263.515 352.451 268.931 354.328 274.37C359.305 291.62 363.011 309.218 365.701 326.977C367.863 338.994 368.556 351.197 370.843 363.191C371.352 367.983 372.168 373.003 371.101 377.753Z" fill="white"></path><path d="M220.779 366.523C220.774 366.547 220.769 366.568 220.761 366.591C220.281 367.723 220.101 372.802 219.147 375.362C218.683 376.614 218.031 377.263 217.066 376.559C216.947 376.181 216.902 375.787 216.913 375.383C216.931 374.087 217.455 372.687 217.504 371.412C217.575 371.037 217.64 370.656 217.7 370.278C217.828 369.517 217.948 368.755 218.086 367.996C218.24 367.152 218.417 366.317 218.662 365.499C218.949 364.956 219.332 364.724 219.7 364.716C220.407 364.701 221.045 365.512 220.779 366.523Z" fill="#231F20"></path><path d="M137.006 285.936C133.549 285.55 131.26 281.647 133.645 278.753C128.921 280.216 127.993 274.93 131.275 272.516C123.268 269.601 129.867 262.48 136.047 264.994C136.034 264.994 136.018 264.988 136.003 264.986C141.715 266.678 146.985 263.685 151.663 260.658C153.261 259.562 154.656 258.214 156.033 256.861C156.372 256.577 156.734 256.022 157.235 256.173C158.619 257.576 152.022 262.637 150.776 263.513C150.781 263.51 150.787 263.505 150.792 263.502C138.725 272.448 135.293 263.854 129.87 267.726C128.796 269.372 131.515 270.469 132.803 270.652C133.559 270.884 134.907 270.54 135.043 271.603C135.038 273.311 131.262 273.225 130.999 275.937C130.676 279.314 137.929 274.404 136.094 277.859C136.104 277.851 136.112 277.843 136.123 277.833C135.163 278.962 133.75 280.549 134.334 282.124C135.523 284.158 138.349 284.925 139.799 282.732C143.481 276.75 148.664 271.984 155.209 269.317C155.175 269.335 155.138 269.353 155.104 269.372C156.202 269.124 157.519 267.119 158.538 268.188C158.781 268.605 158.604 269.134 158.252 269.426C154.867 271.869 150.651 272.993 147.697 276.065C147.715 276.049 147.733 276.031 147.752 276.015C147.655 276.101 147.561 276.185 147.465 276.271L147.47 276.265C147.436 276.297 147.402 276.325 147.368 276.354C147.379 276.346 147.389 276.336 147.4 276.328C146.046 277.541 144.816 278.891 143.796 280.396C143.799 280.39 143.801 280.388 143.804 280.383C143.78 280.416 143.757 280.45 143.731 280.484C143.734 280.479 143.736 280.476 143.739 280.471C143.71 280.513 143.681 280.552 143.653 280.594C143.663 280.581 143.674 280.565 143.681 280.552C143.52 280.787 143.355 281.019 143.194 281.251C143.222 281.209 143.251 281.167 143.28 281.128C143.233 281.193 143.186 281.261 143.139 281.326C143.152 281.311 143.162 281.293 143.176 281.277C141.728 283.394 139.932 286.223 137.001 285.936H137.006Z" fill="#231F20"></path><path d="M143.196 272.964C143.968 271.809 145.485 271.345 146.627 270.615C149.584 268.858 152.382 266.834 155.446 265.254C155.745 265.121 156.097 265.228 156.223 265.546C156.502 266.394 155.44 266.657 154.89 266.991C154.893 266.991 154.895 266.988 154.898 266.986C154.835 267.02 154.773 267.051 154.71 267.085C154.721 267.08 154.731 267.074 154.739 267.069C151.185 269.035 147.691 271.163 144.278 273.343C144.002 274.02 142.935 273.697 143.196 272.962V272.964Z" fill="#231F20"></path><path d="M148.969 267.244C149.376 265.468 153.878 263.536 155.388 262.188C155.373 262.201 155.354 262.211 155.339 262.224C157.336 260.843 159.349 259.489 161.312 258.06C161.289 258.076 161.265 258.092 161.244 258.107C162.209 257.432 163.229 256.83 164.12 256.055C164.094 256.079 164.068 256.102 164.042 256.126C164.929 255.044 166.081 256.483 164.991 257.218C159.912 260.334 154.856 263.505 149.832 266.712C149.84 266.707 149.845 266.701 149.853 266.696C149.694 266.806 149.54 266.918 149.391 267.046C149.394 267.043 149.399 267.04 149.402 267.038C149.274 267.134 149.099 267.575 148.969 267.244Z" fill="#231F20"></path><path d="M192.208 171.698C192.315 170.043 192.309 168.04 193.428 166.721C194.153 166.056 194.88 167.253 194.176 167.782C193.887 168.932 193.879 170.126 193.856 171.304C193.856 171.304 193.856 171.302 193.856 171.299C194.038 172.381 192.341 172.971 192.205 171.696L192.208 171.698Z" fill="white"></path><path d="M197.589 169.662C196.935 169.37 197.417 164.562 198.416 164.948C199.214 165.221 198.703 166.395 198.815 167.036C198.82 167.964 199.203 170.29 197.589 169.659V169.662Z" fill="white"></path><path d="M202.494 166.935C201.993 166.249 202.653 165.339 202.757 164.598C202.75 164.622 202.744 164.645 202.737 164.669C202.872 164.338 203.151 161.999 203.568 163.151C203.446 164.147 204.471 167.811 202.492 166.935H202.494Z" fill="white"></path><path d="M235.287 160.601C234.218 160.288 235.089 159.047 235.25 158.364C235.368 157.988 235.514 157.11 236.072 157.342C236.424 158.04 236.517 160.716 235.289 160.601H235.287Z" fill="white"></path><path d="M239.133 162.181C237.358 162.085 239.102 158.325 239.798 157.686C241.162 157.211 240.609 159.05 240.419 159.751C240.158 160.611 240.359 162.111 239.133 162.181Z" fill="white"></path><path d="M243.269 164.204C242.114 163.912 242.873 162.591 243.081 161.855C243.243 161.276 243.113 160.317 243.947 160.283C244.416 160.283 244.62 160.791 244.492 161.193C244.27 162.179 244.776 164.204 243.269 164.204Z" fill="white"></path><path d="M215.635 117.561C214.84 116.893 215.507 115.409 215.403 114.46C215.45 112.33 215.731 110.176 216.897 108.341C217.666 106.302 220.153 106.641 218.897 108.662C216.876 110.758 216.519 113.795 216.261 116.567C216.576 116.966 216.169 117.722 215.635 117.561Z" fill="white"></path><path d="M219.366 114.836C219.397 114.476 219.496 114.129 219.59 113.783C219.588 113.793 219.585 113.806 219.583 113.817C219.588 113.796 219.593 113.775 219.598 113.754C219.598 113.759 219.596 113.767 219.593 113.772C219.596 113.759 219.601 113.746 219.603 113.733C219.603 113.738 219.601 113.744 219.598 113.749C219.616 113.681 219.635 113.613 219.653 113.545C219.648 113.564 219.645 113.579 219.64 113.598C219.663 113.509 219.687 113.42 219.71 113.332C219.71 113.337 219.708 113.342 219.705 113.347C220.305 111.227 220.941 108.45 222.897 107.225C223.681 107.126 223.887 108.185 223.368 108.63C221.843 110.411 220.845 112.654 220.406 114.951C220.696 116.108 219.116 116.028 219.361 114.839L219.366 114.836Z" fill="white"></path><path d="M224.561 113.548C224.761 112.356 225.648 111.243 226.477 110.388C226.725 110.184 227.108 110.247 227.257 110.536C227.575 111.209 226.779 111.472 226.375 111.814C225.869 111.96 224.73 114.312 224.561 113.548Z" fill="white"></path><path d="M290.746 223.804C289.516 222.096 287.307 222.021 285.495 221.319C285.386 221.353 285.276 221.304 285.227 221.207C285.099 221.153 284.961 221.095 284.864 220.991C283.748 218.999 290.705 220.558 291.265 221.262C293.213 222.576 292.225 224.714 290.746 223.804Z" fill="white"></path><path d="M299.192 235.108C299.364 233.846 298.579 230.203 299.799 229.674C301.03 229.804 299.969 232.148 300.175 233.017C300.023 233.807 300.646 235.11 299.781 235.554C299.497 235.634 299.199 235.415 299.194 235.108H299.192Z" fill="white"></path><path d="M310.641 277.384C309.789 277.128 305.526 275.603 307.194 274.503C307.429 274.547 307.844 274.401 307.786 274.8C308.803 275.559 311.843 275.131 311.606 276.808C311.473 277.204 311.053 277.506 310.641 277.384Z" fill="white"></path><path d="M312.793 270.545C312.206 269.825 308.078 265.288 310.498 265.34C311.833 266.368 312.79 267.932 314.023 269.116C314.774 269.856 313.627 271.316 312.79 270.545H312.793Z" fill="white"></path><path d="M332.7 254.142C331.373 253.169 336.447 249.404 337.101 248.233C338.65 247.297 339.153 249.396 337.101 250.322C335.818 251.318 334.614 252.436 333.573 253.685C333.409 254.003 333.07 254.327 332.7 254.142Z" fill="white"></path><path d="M176.821 266.563C175.927 266.149 176.253 261.969 177.194 261.708C178.334 261.674 177.562 263.614 177.846 264.342C178.154 265.265 178.308 266.96 176.821 266.563Z" fill="white"></path><path d="M185.23 265.074C183.783 264.821 184.912 263.184 185.236 262.397C185.488 261.985 185.277 261.111 185.94 261.119C186.737 261.732 186.083 263.228 186.153 264.138C186.117 264.61 185.731 265.074 185.233 265.072L185.23 265.074Z" fill="white"></path><path d="M242.635 335.779C241.516 335.297 240.411 334.783 239.279 334.337C239.284 334.337 239.292 334.343 239.297 334.345C238.536 333.931 232.768 332.671 235.157 331.542C236.69 332.637 244.366 333.099 243.678 335.336C243.487 335.727 243.036 335.957 242.635 335.779Z" fill="white"></path><path d="M299.99 333.315C298.911 333.193 297.831 333.07 296.773 332.828C296.783 332.828 296.794 332.833 296.804 332.836C296.747 332.823 296.689 332.81 296.632 332.797C296.642 332.799 296.655 332.802 296.666 332.804C294.462 332.299 292.249 331.691 290.348 330.419C290.358 330.426 290.371 330.432 290.382 330.439C289.441 329.728 287.934 329.287 287.532 328.103C287.456 327.553 288.325 327.23 288.46 327.848C289.618 328.763 291.026 329.339 292.353 329.965C292.327 329.954 292.304 329.944 292.277 329.936C294.867 330.919 297.675 331.123 300.4 331.501C301.497 331.712 301.017 333.472 299.993 333.318L299.99 333.315Z" fill="white"></path><path d="M304.806 330.883C303.27 330.468 300.112 329.918 299.471 328.377C299.382 327.694 300.488 327.433 300.501 328.213C301.171 328.536 301.906 328.685 302.626 328.859C302.608 328.854 302.589 328.851 302.571 328.846C305.533 329.808 308.443 328.872 311.144 327.743C313.032 328.643 310.68 330.08 309.58 330.314C309.601 330.306 309.621 330.299 309.642 330.293C308.109 330.838 306.427 331.112 304.803 330.88L304.806 330.883Z" fill="white"></path><path d="M319.821 333.719C319.094 333.01 320.296 332.351 320.653 331.793C320.83 331.193 321.621 330.877 321.537 331.743C321.548 331.709 321.555 331.673 321.561 331.636C321.561 331.652 321.558 331.667 321.555 331.683C321.235 332.361 320.823 334.121 319.824 333.722L319.821 333.719Z" fill="white"></path><path d="M177.611 382.298C177.189 381.302 176.751 377.161 178.758 378.603C178.946 379.299 178.899 380.061 179.095 380.767C179.095 380.765 179.095 380.762 179.095 380.76C179.103 380.796 179.11 380.835 179.118 380.872C179.113 380.848 179.108 380.822 179.103 380.799C179.298 381.487 179.559 382.434 178.68 382.744C178.271 382.905 177.76 382.754 177.611 382.298Z" fill="white"></path><path d="M82.1077 385.789C81.409 385.87 79.3517 385.727 80.7336 384.798C84.5248 384.415 88.3629 384.426 92.1749 384.28C92.1749 384.28 92.1697 384.28 92.1671 384.28C97.0455 383.816 101.929 383.479 106.826 383.258C106.802 383.258 106.776 383.26 106.753 383.26C106.815 383.258 106.878 383.255 106.941 383.252C106.938 383.252 106.935 383.252 106.933 383.252C108.732 383.145 110.536 383.229 112.335 383.179C112.32 383.179 112.301 383.179 112.286 383.182C112.421 383.177 112.557 383.169 112.693 383.164C112.659 383.164 112.625 383.164 112.591 383.166C115.529 382.879 118.465 382.921 121.412 382.945C121.404 382.945 121.393 382.945 121.386 382.945C121.422 382.945 121.459 382.942 121.498 382.939C121.49 382.939 121.482 382.939 121.474 382.939C127.166 382.535 132.882 382.919 138.581 382.864C138.571 382.864 138.563 382.864 138.553 382.864C147.556 382.78 156.573 382.598 165.584 382.374C165.565 382.374 165.547 382.374 165.529 382.376C169.101 382.235 172.694 382.465 176.214 381.847C179.494 384.543 167.644 383.868 166.395 384.084C166.415 384.084 166.436 384.084 166.457 384.081C166.415 384.081 166.371 384.087 166.329 384.087C166.345 384.087 166.361 384.087 166.376 384.087C163.37 384.353 160.361 384.196 157.352 384.29C157.396 384.29 157.438 384.287 157.482 384.285C143.569 385.025 129.648 384.209 115.725 384.392C115.741 384.392 115.756 384.392 115.772 384.392C115.735 384.392 115.702 384.394 115.665 384.397C115.683 384.397 115.704 384.397 115.722 384.397C112.69 384.663 109.647 384.525 106.609 384.619C106.643 384.619 106.675 384.619 106.709 384.616C104.664 384.712 102.623 384.851 100.576 384.918C100.607 384.918 100.641 384.918 100.672 384.916C100.44 384.926 100.206 384.937 99.9737 384.945C100.008 384.945 100.039 384.945 100.073 384.942C97.5462 385.018 95.0509 385.432 92.5295 385.578C92.5634 385.578 92.5947 385.578 92.626 385.576C89.119 385.664 85.6121 385.781 82.1051 385.795L82.1077 385.789Z" fill="white"></path><path d="M192.26 383.15C191.6 381.703 194.685 381.943 195.529 381.769C196.538 381.805 196.267 383.244 195.391 383.278C194.38 383.247 193.172 383.649 192.26 383.15Z" fill="white"></path><path d="M203.865 382.817C203.07 382.812 202.28 382.739 201.487 382.759C201.091 382.851 200.543 382.658 200.689 382.162C201.388 381.158 203.111 381.258 204.233 381.26C205.247 381.445 204.757 382.903 203.865 382.819V382.817Z" fill="white"></path><path d="M249.839 382.59C249.388 382.634 248.728 382.496 248.9 381.904C249.703 380.733 251.841 381.391 253.106 380.926C253.106 380.926 253.106 380.926 253.103 380.926C254.941 380.483 255.28 382.882 251.317 382.572C251.351 382.572 251.388 382.572 251.421 382.569C250.895 382.59 250.368 382.603 249.841 382.59H249.839Z" fill="white"></path><path d="M262.003 382.793C260.98 382.728 259.958 382.561 258.931 382.64C258.563 382.64 258.363 382.262 258.511 381.943C259.291 381.203 261.072 381.49 262.154 381.159C263.405 381.057 263.098 382.89 262.005 382.796L262.003 382.793Z" fill="white"></path><path d="M175.203 375.72C173.184 370.338 171.98 364.396 169.717 358.996C167.326 351.171 165.628 343.151 163.164 335.347C163.172 335.37 163.177 335.394 163.185 335.417C160.919 328.294 159.642 320.907 157.178 313.836C157.178 313.836 157.178 313.841 157.178 313.843C157.058 313.113 153.916 305.536 155.78 306.626C155.777 306.618 155.775 306.613 155.772 306.605C155.848 306.694 155.89 306.816 155.85 306.936C155.895 307.111 155.944 307.283 155.996 307.455V307.45C156.508 309.52 157.358 311.473 158.012 313.497C158.012 313.491 158.009 313.489 158.007 313.484C158.02 313.528 158.033 313.57 158.046 313.614C158.041 313.593 158.033 313.57 158.028 313.549C158.069 313.69 158.111 313.83 158.153 313.971C158.145 313.948 158.14 313.927 158.132 313.906C158.254 314.315 158.372 314.727 158.489 315.137C158.481 315.113 158.476 315.092 158.468 315.071C160.481 320.537 161.584 326.249 163.055 331.868C165.706 339.925 167.811 348.146 170.157 356.292C170.152 356.279 170.149 356.263 170.144 356.25C170.152 356.279 170.162 356.31 170.17 356.339C170.168 356.326 170.162 356.315 170.16 356.302C171.774 361.022 173.474 365.71 174.924 370.489C174.984 371.595 177.466 376.126 175.203 375.722V375.72Z" fill="white"></path><path d="M105.793 352.876C93.5229 351.781 99.9032 337.245 108.956 338.301C117.409 339.985 113.735 354.13 105.793 352.876ZM107.094 350.894C110.708 350.957 112.883 346.188 111.404 343.184C109.83 340.64 105.819 340.653 103.804 342.694C103.027 343.594 102.099 344.517 101.637 345.607C101.528 345.995 101.246 346.342 100.868 346.48C100.594 349.726 104.542 350.696 107.094 350.894Z" fill="white"></path></g><defs><clipPath id="clip0_5833_36903"><rect width="437" height="176" fill="white" transform="translate(9.39062)"></rect></clipPath><clipPath id="clip1_5833_36903"><rect width="466" height="330.83" fill="white" transform="translate(0 98)"></rect></clipPath></defs></svg>